<?xml version="1.0" encoding="UTF-8" standalone="no"?>
<!DOCTYPE svg PUBLIC "-//W3C//DTD SVG 1.1//EN" "http://www.w3.org/Graphics/SVG/1.1/DTD/svg11.dtd">
<svg width="100%" height="100%" viewBox="0 0 200 200" version="1.1" xmlns="http://www.w3.org/2000/svg" xmlns:xlink="http://www.w3.org/1999/xlink" xml:space="preserve" xmlns:serif="http://www.serif.com/" style="fill-rule:evenodd;clip-rule:evenodd;stroke-linejoin:round;stroke-miterlimit:2;">
    <g transform="matrix(1,0,0,1,68.75,25)">
        <path d="M0,0L32.5,0L32.75,0.25L32.75,102.5L32,108.25L30.5,114.25L28.75,119L26.75,123.25L23.75,128L21.5,131L19.25,133.5L17.5,135.5L14.75,138L11.5,140.5L7.75,143L4,145L-2.25,147.5L-8,149L-13,149.75L-17.5,150L-20.5,150L-26.75,149.5L-32.5,148.25L-38.75,146L-43,144L-47.5,141.25L-50.75,138.75L-53.75,136L-57.75,132L-61,127.75L-63.25,124L-65.25,120L-67.25,115L-68.75,110.25L-68.75,87.25L-66.25,79.75L-64.25,75.25L-62.25,71.75L-59.5,67.75L-57.25,65L-55.25,62.75L-53.25,61L-50.25,58.25L-44.25,54.25L-40.5,52.25L-35.5,50.25L-30.5,48.75L-24.5,47.75L-21,47.5L-9.5,47.5L-9.25,47.75L-9.25,80.25L-9.5,80.5L-21.25,80.75L-25,81.75L-28.5,83.5L-31.25,85.75L-33.25,88L-34.75,90.5L-36,93.75L-36.5,96.25L-36.5,101.5L-35.5,105.5L-33.75,108.75L-31.75,111.25L-29.25,113.5L-26.25,115.25L-22.5,116.5L-21,116.75L-15.75,116.75L-12,115.75L-8.5,114L-5.75,111.75L-3.75,109.5L-2,106.5L-1,103.75L-0.5,101L-0.25,0.25L0,0Z" style="fill:rgb(40,61,71);fill-rule:nonzero;"/>
    </g>
    <g transform="matrix(1,0,0,1,164.75,73.25)">
        <path d="M0,0L35.25,0L35.25,2L33.5,4.5L30.5,9.25L28,13.25L25.25,17.5L22.25,22.25L19.5,26.5L12.5,37.5L9.75,41.75L6.25,47.25L-1.75,59.75L-5.25,65.25L-8,69.5L-10.5,73.5L-13.75,78.5L-16.75,83.25L-19.5,87.5L-23,93L-26.75,98.75L-27.5,99.25L-63.25,99.25L-63,98L-60.75,94.75L-57.75,90L-49.75,77.5L-46,71.75L-42.25,65.75L-39.5,61.5L-35.5,55.25L-32,49.75L-28.75,44.75L-26.25,40.75L-23.5,36.5L-19.5,30.25L-16,24.75L-13.25,20.5L-6.25,9.5L-3.5,5.25L-1.25,1.75L0,0Z" style="fill:rgb(254,80,0);fill-rule:nonzero;"/>
    </g>
</svg>
